<?xml version="1.0" encoding="utf-8"?>
<!-- Generator: Adobe Illustrator 24.2.3, SVG Export Plug-In . SVG Version: 6.00 Build 0)  -->
<svg version="1.1" id="Ebene_1" xmlns="http://www.w3.org/2000/svg" xmlns:xlink="http://www.w3.org/1999/xlink" x="0px" y="0px"
	 viewBox="0 0 1920 1080" style="enable-background:new 0 0 1920 1080;" xml:space="preserve">
<style type="text/css">
	.st0{fill:url(#SVGID_1_);}
	.st1{fill:url(#SVGID_2_);}
	.st2{fill:url(#SVGID_3_);}
	.st3{fill:url(#SVGID_4_);}
</style>
<g>
	<linearGradient id="SVGID_1_" gradientUnits="userSpaceOnUse" x1="137.3981" y1="540.8773" x2="1826.1096" y2="540.8773">
		<stop  offset="5.487623e-07" style="stop-color:#61C5E6"/>
		<stop  offset="1" style="stop-color:#05908D"/>
	</linearGradient>
	<path class="st0" d="M1826.11,848.97c0,124.55-100.94,225.55-225.49,225.55c-44.74,0-86.43-13.05-121.56-35.51
		c-0.57-0.38-1.08-0.76-1.65-1.08c-142.05-93.3-311.98-147.59-494.57-147.59c-182.27,0-352.01,54.1-493.87,147.14
		c-0.25,0.13-0.45,0.25-0.64,0.45c-35.89,24.06-79.04,38.06-125.44,38.06c-124.55,0-225.49-100.94-225.49-225.49
		c0-56.83,21.07-108.77,55.75-148.35l21.38-21.38L823.22,72.02c0.13-0.13,0.25-0.25,0.38-0.38c40.8-40.67,97.12-65.87,159.24-65.87
		c60.33,0,115.19,23.74,155.61,62.31c0.7,0.64,1.34,1.27,1.97,1.91l3.82,3.82c0.64,0.64,1.27,1.27,1.85,1.91l610.09,610.08
		c0.7,0.57,1.34,1.21,1.97,1.91l3.82,3.82c0.64,0.64,1.27,1.27,1.85,1.91C1802.37,733.84,1826.11,788.64,1826.11,848.97z"/>
	<linearGradient id="SVGID_2_" gradientUnits="userSpaceOnUse" x1="137.6467" y1="850.0299" x2="1383.5212" y2="850.0299">
		<stop  offset="1.065558e-06" style="stop-color:#0697D5"/>
		<stop  offset="1" style="stop-color:#30519E"/>
	</linearGradient>
	<path class="st1" d="M202.73,692.82l-9.33,9.33c-34.69,39.59-55.75,91.52-55.75,148.35c0,124.55,100.94,225.49,225.49,225.49
		c23.2,0,45.58-3.5,66.66-10.01c0.1-0.03,0.2-0.07,0.3-0.1c4.78-1.48,9.48-3.15,14.11-4.93c15.29-5.99,29.77-13.59,43.23-22.61
		c0.19-0.19,0.38-0.32,0.64-0.45c62.18-40.79,129.72-74.08,201.33-98.62c92.07-31.7,190.89-48.92,293.69-48.92
		c143.84,0,279.75,33.81,400.44,93.72C463.95,471.58,264.96,640.61,202.45,692.82H202.73z"/>
	<linearGradient id="SVGID_3_" gradientUnits="userSpaceOnUse" x1="816.5607" y1="652.4971" x2="716.7488" y2="1092.6603">
		<stop  offset="0" style="stop-color:#070E19;stop-opacity:0.7"/>
		<stop  offset="0.1204" style="stop-color:#070D17;stop-opacity:0.6157"/>
		<stop  offset="0.5857" style="stop-color:#06070F;stop-opacity:0.29"/>
		<stop  offset="1" style="stop-color:#05050C;stop-opacity:0"/>
	</linearGradient>
	<path class="st2" d="M201.56,692.79l-9.33,9.33c-34.69,39.59-55.75,91.52-55.75,148.35c0,124.55,100.94,225.49,225.49,225.49
		c23.2,0,45.58-3.5,66.66-10.01c0.1-0.03,0.2-0.07,0.3-0.1c4.78-1.48,9.48-3.15,14.11-4.93c15.29-5.99,29.77-13.59,43.23-22.61
		c0.19-0.19,0.38-0.32,0.64-0.45c62.18-40.79,129.72-74.08,201.33-98.62c92.07-31.7,190.89-48.92,293.69-48.92
		c143.84,0,279.75,33.81,400.44,93.72C462.77,471.54,263.78,640.58,201.27,692.79H201.56z"/>
	<linearGradient id="SVGID_4_" gradientUnits="userSpaceOnUse" x1="630.0597" y1="515.5728" x2="1826.7125" y2="515.5728">
		<stop  offset="5.487623e-07" style="stop-color:#61C5E6"/>
		<stop  offset="1" style="stop-color:#05908D"/>
	</linearGradient>
	<path class="st3" d="M1764.4,693.62c-0.57-0.64-1.21-1.27-1.85-1.91l-3.82-3.82c-0.64-0.7-1.27-1.34-1.97-1.91L1146.68,75.89
		c-0.57-0.64-1.21-1.27-1.85-1.91l-3.82-3.82c-0.64-0.64-1.27-1.27-1.97-1.91c-40.41-38.57-95.27-62.31-155.61-62.31
		c-62.12,0-118.44,25.2-159.24,65.87c-0.13,0.13-0.25,0.25-0.38,0.38L630.06,265.98c157.48-18.74,577.36,18.83,1112.07,759.21
		c51.55-41.34,84.59-104.82,84.59-176.03C1826.71,788.83,1802.97,734.03,1764.4,693.62z"/>
</g>
</svg>
