<?xml version="1.0" encoding="utf-8"?>
<!-- Generator: Adobe Illustrator 24.2.3, SVG Export Plug-In . SVG Version: 6.00 Build 0)  -->
<svg version="1.1" id="Ebene_1" xmlns="http://www.w3.org/2000/svg" xmlns:xlink="http://www.w3.org/1999/xlink" x="0px" y="0px"
	 viewBox="0 0 1920 1080" style="enable-background:new 0 0 1920 1080;" xml:space="preserve">
<style type="text/css">
	.st0{fill:#FFFFFF;}
</style>
<g>
	<path class="st0" d="M397.74,693.45c-7.57-19.43-16.33-41.72-26.38-66.8c-10-25.14-20.86-51.78-32.53-79.9
		c-11.73-28.12-23.16-55.13-34.27-81.02c-11.17-25.83-21.54-49.17-31.17-69.9c-4.84-10.37-9.56-20.49-14.15-28.87
		c-0.5-0.93-1.06-1.92-1.55-2.79c-0.12-0.19-0.25-0.37-0.31-0.56c-9.37-15.4-25.83-25.95-44.82-27.19c-0.62-0.06-1.3-0.06-1.92-0.06
		c-2.05,0-4.03,0-6.02,0.12c-0.74,0-1.49,0.06-2.17,0.19c-16.89,1.86-31.48,11.17-40.6,24.52c-0.06,0.12-0.12,0.25-0.25,0.37
		c-0.87,1.37-1.8,2.86-2.67,4.41c0,0.06,0,0.12-0.06,0.12c-1.8,3.17-3.54,6.64-5.28,10.43c-13.6,30.23-27.25,61.21-41.04,92.94
		c-13.78,31.72-27.13,62.95-39.92,93.74c-12.85,30.73-25.14,60.78-36.81,90.02c-5.77,14.4-11.25,28.31-16.45,41.74
		c-7.49,19.33,6.72,40.15,27.45,40.15h0c15.04,0,28.5-9.33,33.72-23.43c2.34-6.32,4.9-13.14,7.68-20.46
		c5.92-15.79,12.53-32.89,19.86-51.25c1.49-3.74,5.13-6.23,9.15-6.23l176.42,0c4.03,0,7.64,2.45,9.13,6.2
		c2.38,5.98,4.97,12.6,7.76,19.82c3.72,9.87,7.45,19.56,11.05,29.18c3.54,9.62,6.89,18.62,9.87,26.94l0,0
		c12.86,26.97,42.53,20.07,42.53,20.07c17.24-3.45,31.65-22.12,24-41.9L397.74,693.45z M148.69,574.25
		c-6.91,0-11.71-6.95-9.17-13.38c4.13-10.48,8.45-21.12,12.93-31.94c6.46-15.52,12.85-30.67,19.24-45.63
		c5.65-13.04,11.11-25.58,16.45-37.44c0.74-1.68,1.49-3.35,2.23-5.03c2.68-5.9,5.24-11.53,7.68-16.88
		c3.48-7.62,14.31-7.61,17.78,0.02c1.52,3.35,3.15,6.98,4.9,10.9c1.74,3.97,3.54,8.01,5.34,12.23c4.22,9.87,8.69,20.42,13.35,31.66
		c6.58,16.08,13.28,32.47,20.11,49.29c4.68,11.63,9,22.58,12.99,32.85c2.5,6.44-2.27,13.34-9.18,13.34L148.69,574.25z"/>
	<path class="st0" d="M534.79,418.09c0-5.43-4.4-9.83-9.83-9.83H421.51c-22.28,0-33.42-10.19-33.42-30.59
		c0-7.17,1.13-13.68,3.4-19.54c0.82-2.12,1.56-3.98,2.24-5.58c1.54-3.67,5.09-6.04,9.07-6.04l317.21,0
		c22.27,0,33.42,10.2,33.42,30.59c0,7.18-1.04,13.69-3.12,19.54c-0.75,2.1-1.46,3.95-2.13,5.54c-1.55,3.68-5.1,6.07-9.09,6.07
		l-127.07,0c-5.43,0-9.83,4.4-9.83,9.83v301.94c0,8.32-6.74,15.06-15.06,15.06h-34.55c-9.83,0-17.8-7.97-17.8-17.8V418.09z"/>
	<path class="st0" d="M811.77,377.67c0-10.57,3.21-18.41,9.63-23.5c6.42-5.1,15.1-7.65,26.06-7.65c7.17,0,13.78,0.95,19.82,2.83
		c1.9,0.6,3.6,1.14,5.09,1.62c4.06,1.32,6.8,5.08,6.8,9.35l0,303.2c0,5.43,4.4,9.83,9.83,9.83h154.77
		c19.53,0,35.35,15.83,35.35,35.35v0c0,14.57-11.81,26.39-26.39,26.39H821.6c-5.43,0-9.83-4.4-9.83-9.83V377.67z"/>
	<path class="st0" d="M1590.82,655.87c2.86-5.12,9.32-6.94,14.4-3.99c2.84,1.65,6.09,3.42,9.73,5.32
		c8.3,4.35,18.59,8.69,30.87,13.03c12.26,4.35,26.24,8.03,41.91,11.05c15.67,3.03,32.76,4.53,51.26,4.53
		c32.85,0,56.36-4.82,70.52-14.44c14.16-9.63,21.24-23.31,21.24-41.07c0-8.68-1.61-16.05-4.81-22.09
		c-3.21-6.04-7.93-11.23-14.16-15.57c-6.23-4.34-13.79-7.83-22.66-10.48c-8.88-2.64-18.98-4.9-30.31-6.8l-62.31-11.33
		c-15.86-2.64-31.15-6.6-45.88-11.89c-14.73-5.28-27.75-12.27-39.09-20.96c-11.33-8.68-20.39-19.35-27.18-32
		c-6.8-12.65-10.2-27.84-10.2-45.6c0-15.86,2.92-30.96,8.78-45.32c5.85-14.34,15.2-26.81,28.04-37.38
		c12.83-10.57,29.07-18.98,48.71-25.21c19.62-6.23,43.41-9.35,71.36-9.35c20.39,0,38.14,1.13,53.25,3.4
		c15.1,2.26,27.94,5.01,38.52,8.21c10.57,3.21,19.06,6.51,25.49,9.91c6.41,3.4,11.13,6.04,14.16,7.93
		c6.03,4.16,10.94,8.69,14.73,13.6c3.77,4.91,5.66,10.58,5.66,16.99c0,8.69-2.64,16.71-7.93,24.07c-2.37,3.3-4.67,6.17-6.89,8.6
		c-3.7,4.06-9.83,4.63-14.13,1.2c-2.75-2.19-6.04-4.52-9.86-6.97c-7.36-4.72-16.42-9.15-27.18-13.31
		c-10.76-4.15-23.32-7.74-37.67-10.76c-14.36-3.02-30.02-4.53-47.02-4.53s-31.25,1.33-42.77,3.96
		c-11.52,2.65-20.67,6.33-27.47,11.05c-6.8,4.73-11.71,10.39-14.73,16.99c-3.03,6.61-4.53,14.07-4.53,22.37
		c0,14.36,5.57,25.59,16.71,33.7c11.13,8.12,29.74,14.64,55.79,19.54l63.44,11.89c41.15,7.56,72.12,19.92,92.9,37.1
		c20.76,17.19,31.15,42.01,31.15,74.49c0,18.12-3.6,34.46-10.76,49c-7.18,14.54-17.65,27.1-31.43,37.67
		c-13.79,10.58-30.97,18.69-51.54,24.36c-20.59,5.66-44.28,8.49-71.08,8.49c-22.66,0-43.43-1.79-62.31-5.38
		c-18.89-3.59-35.68-7.93-50.42-13.03c-14.73-5.1-27-10.29-36.81-15.58c-0.1-0.05-0.2-0.11-0.29-0.16
		c-11.9-6.4-16.18-21.35-9.58-33.14L1590.82,655.87z"/>
	<path class="st0" d="M1520.17,691.81c-7.57-19.43-16.33-41.72-26.38-66.8c-10-25.14-20.86-51.78-32.53-79.9
		c-11.73-28.12-23.16-55.13-34.27-81.02c-11.18-25.83-21.54-49.17-31.17-69.9c-4.84-10.37-9.56-20.49-14.15-28.87
		c-0.5-0.93-1.06-1.92-1.55-2.79c-0.12-0.19-0.25-0.37-0.31-0.56c-9.37-15.4-25.83-25.95-44.82-27.19c-0.62-0.06-1.3-0.06-1.92-0.06
		c-2.05,0-4.03,0-6.02,0.12c-0.74,0-1.49,0.06-2.17,0.19c-16.89,1.86-31.48,11.17-40.6,24.52c-0.06,0.12-0.12,0.25-0.25,0.37
		c-0.87,1.37-1.8,2.86-2.67,4.41c0,0.06,0,0.12-0.06,0.12c-1.8,3.17-3.54,6.64-5.28,10.43c-13.6,30.23-27.25,61.21-41.04,92.94
		c-13.78,31.72-27.13,62.95-39.92,93.74c-12.85,30.73-25.14,60.78-36.81,90.02c-5.77,14.4-11.25,28.31-16.45,41.74
		c-7.49,19.33,6.72,40.15,27.45,40.15h0c15.04,0,28.5-9.33,33.72-23.43c2.34-6.32,4.9-13.14,7.68-20.46
		c5.92-15.79,12.53-32.89,19.86-51.25c1.49-3.74,5.13-6.23,9.15-6.23l176.42,0c4.03,0,7.64,2.45,9.13,6.2
		c2.38,5.98,4.97,12.6,7.76,19.82c3.72,9.87,7.45,19.56,11.05,29.18c3.54,9.62,6.89,18.62,9.87,26.94l0,0
		c12.86,26.97,42.53,20.07,42.53,20.07c17.24-3.45,31.65-22.12,24-41.9L1520.17,691.81z M1271.13,572.62
		c-6.91,0-11.71-6.95-9.17-13.38c4.13-10.48,8.45-21.12,12.93-31.94c6.46-15.52,12.85-30.67,19.24-45.63
		c5.65-13.04,11.11-25.58,16.45-37.44c0.74-1.68,1.49-3.35,2.23-5.03c2.68-5.9,5.24-11.53,7.68-16.88
		c3.48-7.62,14.31-7.61,17.78,0.02c1.52,3.35,3.15,6.98,4.9,10.9c1.74,3.97,3.54,8.01,5.34,12.23c4.22,9.87,8.69,20.42,13.35,31.66
		c6.58,16.08,13.28,32.47,20.11,49.29c4.68,11.63,9,22.58,12.99,32.85c2.5,6.44-2.27,13.34-9.18,13.34L1271.13,572.62z"/>
</g>
</svg>
