<?xml version="1.0" encoding="utf-8"?>
<!-- Generator: Adobe Illustrator 24.2.3, SVG Export Plug-In . SVG Version: 6.00 Build 0)  -->
<svg version="1.1" id="Ebene_1" xmlns="http://www.w3.org/2000/svg" xmlns:xlink="http://www.w3.org/1999/xlink" x="0px" y="0px"
	 viewBox="0 0 14400 14400" style="enable-background:new 0 0 14400 14400;" xml:space="preserve">
<style type="text/css">
	.st0{fill:#FFFFFF;}
</style>
<g>
	<path class="st0" d="M305.74,13450.04c139.56-380.03,280.93-759.41,418.38-1140.2c1163.23-3222.5,2325.47-6445.36,3490.82-9667.1
		c19.06-52.68,64.05-111.13,112.68-135.57c405.57-203.83,814.81-400.35,1223.08-598.8c14.06-6.83,29.52-10.77,62.08-22.4
		c-53.75,163.01-101.9,310.06-150.72,456.9c-783.52,2356.82-1567.13,4713.61-2350.69,7070.42
		c-466.93,1404.43-933.81,2808.89-1400.71,4213.33c-8.74,26.28-29.7,55.89-23.63,78.12c11.44,41.88,32.55,106.23,60.42,112.38
		c37.89,8.36,89.53-23.67,127.98-49.31c18.5-12.34,20.88-49.52,29.61-75.77c1034.22-3109.36,2068.45-6218.71,3102.43-9328.15
		c264.67-795.95,528.53-1592.17,792.79-2388.25c10.82-32.6,21.93-65.11,37.63-111.66c166.61,31.96,332.02,62.94,497.1,95.5
		c588.24,116.04,1175.87,235.25,1764.99,346.65c111.29,21.04,161.26,71.49,193.01,179.34
		c1010.89,3432.99,2025.09,6865.01,3038.75,10297.19c45.74,154.89,21.16,192.92-136.13,212.64
		c-591.75,74.22-1182.74,155.73-1775.79,217.54c-143.23,14.93-294.05-30.67-439.94-56.52c-194.46-34.46-388.64-72.28-580.36-119.21
		c-43.95-10.76-101.3-58.32-111.99-99.46c-123.71-476.25-239.7-954.51-357.31-1432.34c-3.23-13.11-1.78-27.36-3.17-53.25
		c260.04-14.4,518.08-31.27,776.39-38.79c24.31-0.71,62.96,53.56,73.63,88.77c129.65,427.63,255.28,856.48,382,1285
		c5.9,19.94,12.33,39.72,18.42,59.61c20.55,67.1,65.57,101.91,133.57,78.86c61.83-20.96,77.57-71.28,58.49-134.92
		c-75.59-252.13-149.62-504.72-224.08-757.19c-67.62-229.3-138.28-457.78-201.13-688.39c-29.24-107.29-80.21-150.59-198.64-143.8
		c-1010.94,57.91-2022.22,109.9-3033.42,163.36c-180.09,9.52-360.22,23.04-540.4,24.28c-91.16,0.63-132.22,29.74-157.35,120.29
		c-198.25,714.32-404.66,1426.38-601.58,2141.07c-30.96,112.38-85.68,156.36-197.63,170.35
		c-822.36,102.72-1644.1,210.41-2465.97,317.1c-30.31,3.94-59.88,13.6-89.79,20.6c-34.71,0-69.43,0-104.14,0
		c-341.18-160.36-682.74-319.89-1023.24-481.69c-77.39-36.78-151.08-81.35-226.48-122.34
		C305.74,13519.47,305.74,13484.76,305.74,13450.04z M6901.71,9253.01c440.65,0,881.29,0.63,1321.93-0.38
		c134.32-0.31,170.81-48.48,133.43-174.95c-430.84-1457.87-861.63-2915.75-1296.27-4372.49c-14.15-47.41-63.7-108.85-106.33-117.72
		c-73.96-15.39-95.88,57.74-115.61,120.06c-459.85,1452.42-920.69,2904.54-1381.13,4356.77
		c-45.93,144.85-12.95,188.47,142.87,188.61C6034.3,9253.3,6468.01,9253.05,6901.71,9253.01z"/>
	<path class="st0" d="M14094.26,8971.9c-107.11,70.11-217.95,135.26-320.02,212.07c-69.31,52.15-139.06,66.07-222.33,58.7
		c-531.98-47.09-1064.33-89.91-1596.24-137.72c-211.99-19.06-211.61-23.22-211.61-235.64c0-1849.95,0-3699.9,0-5549.85
		c0-41.04,0-82.09,0-125.78c-281.44,216.65-548.73,440.74-834.82,637.5c-287.11,197.46-592.95,367.67-911.6,562.69
		c-3.33-66.4-6.37-99.02-6.39-131.64c-0.31-478.97,3.28-957.99-2.85-1436.89c-1.4-109.37,32.35-166.76,132.11-213.02
		c600.14-278.31,1090.35-695.34,1501.08-1209.96c206.77-259.07,331.6-559.01,429.1-871.25c20.57-65.86,46.56-94.74,117.06-104.02
		c429.63-56.55,858.53-118.56,1287.73-178.43c13.32-1.86,27.13-0.24,52.18-0.24c0,47.56,0,91.82,0,136.08
		c0,2800.96-0.01,5601.91,0.1,8402.87c0,38.15-10.87,83.03,5.36,112.74c20.21,37.01,63.48,84.99,96.51,84.78
		c32.68-0.21,74.82-49.38,94.41-86.73c15.83-30.18,4.81-74.7,4.81-112.87c0.08-2797.48,0.07-5594.97,0.07-8392.46
		c0-47.03,0-94.06,0-141.09c7.88-3.32,15.77-6.64,23.65-9.96c120.57,125.95,241.13,251.91,361.7,377.86
		C14094.26,3403.73,14094.26,6187.81,14094.26,8971.9z"/>
	<path class="st0" d="M10104.2,4559.16c255.74-151.33,500.83-286.02,734.86-437.76c234.43-152,457.83-321.02,703.73-495.08
		c0,145.51-11.59,282.63,3.05,416.89c16.76,153.61-36.93,242.98-178.67,302.06c-188.2,78.46-369.95,172.32-555.03,258.38
		c-21.31,9.91-46.73,19.1-69.21,17.09C10534.21,4602.07,10325.71,4580.88,10104.2,4559.16z"/>
	<path class="st0" d="M6955.63,5049.12c397.62,1345,788.88,2668.46,1183.27,4002.52c-261.2,0-510.17,2.63-758.91-3.91
		c-26.02-0.68-64.41-51.84-73.79-85.97c-148.64-540.88-293.63-1082.77-439.13-1624.51c-92.5-344.4-185.16-688.75-275.68-1033.67
		c-10.15-38.68-18.95-84.69-7.74-120.92c112.52-363.7,229.32-726.08,345.25-1088.73C6931.71,5085.13,6938.44,5077.6,6955.63,5049.12
		z"/>
</g>
</svg>
